<svg xmlns="http://www.w3.org/2000/svg" viewBox="0 0 32 32">
  <rect width="32" height="32" rx="8" fill="#e8750f"/>
  <path fill-rule="evenodd" clip-rule="evenodd" fill="white" d="M16 4C9.37 4 4 9.37 4 16c0 5.3 3.44 9.8 8.21 11.38.6.11.82-.26.82-.58 0-.28-.01-1.04-.02-2.04-3.34.73-4.04-1.61-4.04-1.61-.55-1.39-1.34-1.76-1.34-1.76-1.09-.75.08-.73.08-.73 1.21.08 1.85 1.24 1.85 1.24 1.07 1.84 2.81 1.31 3.5 1 .11-.78.42-1.31.76-1.61-2.66-.3-5.47-1.33-5.47-5.93 0-1.31.47-2.38 1.24-3.22-.12-.3-.54-1.52.12-3.17 0 0 1.01-.32 3.3 1.23.96-.27 1.98-.4 3.01-.4 1.02 0 2.05.14 3.01.4 2.29-1.56 3.3-1.23 3.3-1.23.66 1.65.24 2.87.12 3.17.77.84 1.24 1.91 1.24 3.22 0 4.61-2.81 5.63-5.48 5.92.43.37.82 1.1.82 2.22 0 1.6-.01 2.9-.01 3.29 0 .32.21.69.82.57C24.56 25.8 28 21.3 28 16c0-6.63-5.37-12-12-12z"/>
</svg>
